<?xml version="1.0" encoding="UTF-8" standalone="no"?>
<!-- Created with Inkscape (http://www.inkscape.org/) -->

<svg
   xmlns:dc="http://purl.org/dc/elements/1.1/"
   xmlns:cc="http://creativecommons.org/ns#"
   xmlns:rdf="http://www.w3.org/1999/02/22-rdf-syntax-ns#"
   xmlns:svg="http://www.w3.org/2000/svg"
   xmlns="http://www.w3.org/2000/svg"
   xmlns:sodipodi="http://sodipodi.sourceforge.net/DTD/sodipodi-0.dtd"
   xmlns:inkscape="http://www.inkscape.org/namespaces/inkscape"
   width="282.4942"
   height="466.63339"
   id="svg3000"
   version="1.1"
   inkscape:version="0.48.4 r9939"
   sodipodi:docname="trizub.svg"
   inkscape:export-filename="C:\Temp\OverlayImages\trizub_small.png"
   inkscape:export-xdpi="23.257114"
   inkscape:export-ydpi="23.257114">
  <defs
     id="defs3002" />
  <sodipodi:namedview
     id="base"
     pagecolor="#ffffff"
     bordercolor="#666666"
     borderopacity="1.0"
     inkscape:pageopacity="0.0"
     inkscape:pageshadow="2"
     inkscape:zoom="0.35"
     inkscape:cx="112.00001"
     inkscape:cy="185.99849"
     inkscape:document-units="px"
     inkscape:current-layer="layer1"
     showgrid="false"
     fit-margin-top="0"
     fit-margin-left="0"
     fit-margin-right="0"
     fit-margin-bottom="0"
     inkscape:window-width="1024"
     inkscape:window-height="719"
     inkscape:window-x="-4"
     inkscape:window-y="-4"
     inkscape:window-maximized="1" />
  <metadata
     id="metadata3005">
    <rdf:RDF>
      <cc:Work
         rdf:about="">
        <dc:format>image/svg+xml</dc:format>
        <dc:type
           rdf:resource="http://purl.org/dc/dcmitype/StillImage" />
        <dc:title></dc:title>
      </cc:Work>
    </rdf:RDF>
  </metadata>
  <g
     inkscape:label="Layer 1"
     inkscape:groupmode="layer"
     id="layer1"
     transform="translate(-262.99999,-251.72727)">
    <path
       style="fill:#ff0000;fill-opacity:1;stroke:none"
       d="m 388.07411,703.50431 c -19.2577,-17.4938 -34.09646,-38.99455 -40.76196,-59.06249 -2.6342,-7.93086 -7.16898,-15.6932 -10.07726,-17.24969 -2.9083,-1.55645 -20.8009,-2.82994 -39.76135,-2.82994 l -34.47355,0 0,-168.67195 0,-168.67196 5.96707,3.19348 c 19.84042,10.61827 45.92088,44.05991 56.58048,72.55025 3.23221,8.63885 8.1387,36.54931 11.62543,66.13092 3.31809,28.15095 6.62834,53.97448 7.35612,57.38563 1.06892,5.01014 -0.31692,6.56232 -7.21098,8.07651 -17.06215,3.74748 -25.73184,26.31285 -15.64332,40.71624 4.83573,6.90397 24.09502,13.88928 30.99456,11.24168 11.18226,-4.29106 34.76516,-68.69352 39.21316,-107.08738 2,-17.26307 1.8711,-45.3879 -0.4216,-92.00628 -3.1916,-64.89431 -3.1094,-67.5868 2.4534,-80.39952 3.1656,-7.29117 7.0104,-14.03216 8.544,-14.97998 1.5336,-0.94782 5.5709,4.19638 8.9719,11.43155 6.0445,12.85917 6.1417,15.02622 4.3246,96.40855 l -1.859,83.25369 7.4974,28.57143 c 4.1235,15.71428 12.5413,39.17857 18.7061,52.14286 10.2349,21.5234 11.9283,23.57142 19.4894,23.57142 4.5543,0 12.6492,-2.93482 17.9888,-6.52182 8.1747,-5.49169 9.8496,-8.47852 10.6033,-18.90915 1.0007,-13.84973 -5.9067,-24.1261 -18.3089,-27.23887 -8.3699,-2.10072 -8.367,0.86173 -0.065,-65.90158 7.539,-60.62447 12.6627,-77.03265 32.2608,-103.31389 6.5589,-8.79553 18.1303,-21.12405 25.7143,-27.3967 l 13.789,-11.40482 1.8048,8.20056 c 2.4679,11.21349 2.9218,223.25279 0.6037,282.02996 l -1.8773,47.59917 -31.6942,0.0391 c -17.4318,0.0229 -34.5013,0.79189 -37.9323,1.71203 -4.4279,1.18752 -8.4134,7.10649 -13.7337,20.39629 -9.2283,23.05186 -19.2756,37.70974 -39.0672,56.9948 l -15.2466,14.85626 -16.3545,-14.8564 z m 5.7524,-51.07132 c 0.9954,-25.85823 -1.7662,-29.62108 -19.5358,-26.61894 -10.9722,1.85374 -11.6408,2.4968 -9.9333,9.55354 2.3191,9.5848 12.098,28.87149 17.9956,35.49269 7.6977,8.64205 10.6116,3.96211 11.4735,-18.42729 z m 39.813,3.79769 c 11.7742,-22.74466 11.9214,-27.99483 0.8533,-30.4258 -17.7536,-3.89935 -20.0642,-0.89332 -20.0642,26.1022 0,21.46691 0.5747,24.192 4.9252,23.35417 2.7088,-0.52169 9.1374,-9.08543 14.2857,-19.03057 l 0,0 z m -95.07545,-51.62543 c 0.88857,-1.43774 2.40288,-10.14646 3.36512,-19.35266 l 1.74953,-16.73857 -14.91834,-6.98737 c -10.11378,-4.73706 -17.6286,-10.9266 -23.33376,-19.21877 -5.8151,-8.45197 -10.45714,-12.2314 -15.02305,-12.2314 -5.83755,0 -6.8176,1.74814 -8.40933,15 -0.99094,8.25 -1.81289,23.58674 -1.82655,34.08163 -0.0338,25.96682 2.41934,28.06122 32.86777,28.06122 13.15216,0 24.64003,-1.17634 25.52861,-2.61408 l 0,0 z m 52.56925,-2.38592 c 3.5181,-6.7138 -0.2673,-15.74982 -9.7091,-23.1768 -14.4462,-11.36334 -21.1448,-6.45728 -21.2423,15.55775 -0.051,11.47217 1.4079,12.61905 16.0509,12.61905 8.7928,0 13.0245,-1.42 14.9005,-5 z m 54.3101,1.2128 c 2.0115,-2.42368 2.3699,-8.33857 0.9956,-16.42857 -1.6648,-9.79983 -3.4939,-12.83568 -8.1375,-13.50588 -12.0027,-1.73229 -29.776,24.00911 -21.9682,31.81688 3.4411,3.44109 25.8972,1.98895 29.1101,-1.88243 z m 74.0679,1.96475 c 6.3966,-1.71369 6.4972,-2.37955 5.7143,-37.81812 l -0.797,-36.07371 -7.6938,-0.8883 c -6.0043,-0.69323 -8.6112,0.87533 -11.8714,7.14284 -5.9384,11.41614 -15.6818,19.67809 -29.8418,25.30432 l -12.2641,4.87291 1.7058,13.21269 c 3.603,27.9074 1.7406,26.07445 26.4483,26.03082 12.1486,-0.0229 25.0185,-0.82402 28.5997,-1.78345 l 0,0 z m -103.1909,-42.58369 c 7.5683,-4.43534 12.3939,-9.33051 12.3939,-12.57268 0,-8.18455 -22.4324,-55.06754 -25.8098,-53.94173 -3.0462,1.0154 -25.6357,49.6105 -25.5982,55.06758 0.017,2.52046 21.8352,18.52623 25.4427,18.66486 0.6476,0.0257 6.7548,-3.22323 13.5714,-7.21803 l 0,0 z m -114.3003,-60.59386 c 2.67638,-4.32142 8.71792,-12.00886 13.42566,-17.08319 l 8.55952,-9.22605 -5.05006,-44.28584 c -2.77754,-24.3572 -6.7485,-49.92928 -8.82436,-56.82684 -7.38014,-24.52234 -21.26718,-45.81483 -26.48564,-40.60948 -2.69712,2.69036 -4.49064,141.32605 -2.0814,160.88855 1.65339,13.42513 2.56878,15 8.71874,15 4.41164,0 8.61334,-2.81263 11.73754,-7.85715 z m 223.1643,-81.64608 c 0.7111,-82.84688 0.4567,-88.01722 -4.2857,-87.10718 -5.4817,1.05192 -18.905,23.4558 -23.6471,39.46755 -1.6289,5.5 -5.6013,31.05827 -8.8275,56.79617 l -5.8659,46.79616 9.8831,10.34669 c 5.4357,5.69068 11.4073,13.31661 13.2702,16.9465 2.4975,4.86647 5.4002,6.36724 11.0521,5.71429 l 7.665,-0.88552 0.7558,-88.07466 z"
       id="path3015"
       inkscape:connector-curvature="0" />
  </g>
</svg>
